<?xml version="1.0" encoding="UTF-8" standalone="no"?><svg xmlns="http://www.w3.org/2000/svg" xmlns:xlink="http://www.w3.org/1999/xlink" contentStyleType="text/css" height="812px" preserveAspectRatio="none" style="width:1827px;height:812px;background:#FFFFFF;" version="1.1" viewBox="0 0 1827 812" width="1827px" zoomAndPan="magnify"><defs/><g><!--MD5=[e0c72c07c257c05cb7d4bf97d5a1910b]
cluster calibration_ph--><g id="cluster_calibration_ph"><path d="M19.5,7 L264.5,7 A12.5,12.5 0 0 1 277,19.5 L277,34.6094 L7,34.6094 L7,19.5 A12.5,12.5 0 0 1 19.5,7 " fill="#F1F1F1" style="stroke:#F1F1F1;stroke-width:1.0;"/><rect fill="none" height="439.5" rx="12.5" ry="12.5" style="stroke:#181818;stroke-width:0.5;" width="270" x="7" y="7"/><line style="stroke:#181818;stroke-width:0.5;" x1="7" x2="277" y1="34.6094" y2="34.6094"/><text fill="#000000" font-family="sans-serif" font-size="14" lengthAdjust="spacing" textLength="89" x="97.5" y="25.5332">calibration_ph</text></g><!--MD5=[61b7ac68d61b31a37687c8ff60f9ac14]
cluster calibration_ec--><g id="cluster_calibration_ec"><path d="M1457.5,7 L1700.5,7 A12.5,12.5 0 0 1 1713,19.5 L1713,34.6094 L1445,34.6094 L1445,19.5 A12.5,12.5 0 0 1 1457.5,7 " fill="#F1F1F1" style="stroke:#F1F1F1;stroke-width:1.0;"/><rect fill="none" height="439.5" rx="12.5" ry="12.5" style="stroke:#181818;stroke-width:0.5;" width="268" x="1445" y="7"/><line style="stroke:#181818;stroke-width:0.5;" x1="1445" x2="1713" y1="34.6094" y2="34.6094"/><text fill="#000000" font-family="sans-serif" font-size="14" lengthAdjust="spacing" textLength="88" x="1535" y="25.5332">calibration_ec</text></g><!--MD5=[6633b345a2b021df6bd32232ea09898d]
cluster change_ph_range--><g id="cluster_change_ph_range"><path d="M329.5,308.5 L534.5,308.5 A12.5,12.5 0 0 1 547,321 L547,336.1094 L317,336.1094 L317,321 A12.5,12.5 0 0 1 329.5,308.5 " fill="#F1F1F1" style="stroke:#F1F1F1;stroke-width:1.0;"/><rect fill="none" height="138" rx="12.5" ry="12.5" style="stroke:#181818;stroke-width:0.5;" width="230" x="317" y="308.5"/><line style="stroke:#181818;stroke-width:0.5;" x1="317" x2="547" y1="336.1094" y2="336.1094"/><text fill="#000000" font-family="sans-serif" font-size="14" lengthAdjust="spacing" textLength="116" x="374" y="327.0332">change_ph_range</text></g><!--MD5=[bda2c9eb75e5770d2f3f695f87c1174c]
cluster change_ec_range--><g id="cluster_change_ec_range"><path d="M1187.5,308.5 L1392.5,308.5 A12.5,12.5 0 0 1 1405,321 L1405,336.1094 L1175,336.1094 L1175,321 A12.5,12.5 0 0 1 1187.5,308.5 " fill="#F1F1F1" style="stroke:#F1F1F1;stroke-width:1.0;"/><rect fill="none" height="138" rx="12.5" ry="12.5" style="stroke:#181818;stroke-width:0.5;" width="230" x="1175" y="308.5"/><line style="stroke:#181818;stroke-width:0.5;" x1="1175" x2="1405" y1="336.1094" y2="336.1094"/><text fill="#000000" font-family="sans-serif" font-size="14" lengthAdjust="spacing" textLength="115" x="1232.5" y="327.0332">change_ec_range</text></g><!--MD5=[259ea5e7e2df4b14b639af1f54c3549b]
cluster measure_ph--><g id="cluster_measure_ph"><path d="M663.5,668 L888.5,668 A12.5,12.5 0 0 1 901,680.5 L901,695.6094 L651,695.6094 L651,680.5 A12.5,12.5 0 0 1 663.5,668 " fill="#F1F1F1" style="stroke:#F1F1F1;stroke-width:1.0;"/><rect fill="none" height="138" rx="12.5" ry="12.5" style="stroke:#181818;stroke-width:0.5;" width="250" x="651" y="668"/><line style="stroke:#181818;stroke-width:0.5;" x1="651" x2="901" y1="695.6094" y2="695.6094"/><text fill="#000000" font-family="sans-serif" font-size="14" lengthAdjust="spacing" textLength="79" x="736.5" y="686.5332">measure_ph</text></g><!--MD5=[902f632078b2322f3d65aced9d34e1bd]
cluster measure_ec--><g id="cluster_measure_ec"><path d="M953.5,668 L1178.5,668 A12.5,12.5 0 0 1 1191,680.5 L1191,695.6094 L941,695.6094 L941,680.5 A12.5,12.5 0 0 1 953.5,668 " fill="#F1F1F1" style="stroke:#F1F1F1;stroke-width:1.0;"/><rect fill="none" height="138" rx="12.5" ry="12.5" style="stroke:#181818;stroke-width:0.5;" width="250" x="941" y="668"/><line style="stroke:#181818;stroke-width:0.5;" x1="941" x2="1191" y1="695.6094" y2="695.6094"/><text fill="#000000" font-family="sans-serif" font-size="14" lengthAdjust="spacing" textLength="78" x="1027" y="686.5332">measure_ec</text></g><ellipse cx="41" cy="96" fill="#222222" rx="10" ry="10" style="stroke:none;stroke-width:1.0;"/><g id="calibration_ph.set_first_sample_ph"><rect fill="#F1F1F1" height="50" rx="12.5" ry="12.5" style="stroke:#181818;stroke-width:0.5;" width="147" x="86.5" y="71"/><line style="stroke:#181818;stroke-width:0.5;" x1="86.5" x2="233.5" y1="98.6094" y2="98.6094"/><text fill="#000000" font-family="sans-serif" font-size="14" lengthAdjust="spacing" textLength="127" x="96.5" y="90.5332">set_first_sample_ph</text></g><g id="calibration_ph.set_second_sample_ph"><rect fill="#F1F1F1" height="50" rx="12.5" ry="12.5" style="stroke:#181818;stroke-width:0.5;" width="170" x="61" y="372.5"/><line style="stroke:#181818;stroke-width:0.5;" x1="61" x2="231" y1="400.1094" y2="400.1094"/><text fill="#000000" font-family="sans-serif" font-size="14" lengthAdjust="spacing" textLength="150" x="71" y="392.0332">set_second_sample_ph</text></g><ellipse cx="1479" cy="96" fill="#222222" rx="10" ry="10" style="stroke:none;stroke-width:1.0;"/><g id="calibration_ec.set_first_sample_ec"><rect fill="#F1F1F1" height="50" rx="12.5" ry="12.5" style="stroke:#181818;stroke-width:0.5;" width="146" x="1524" y="71"/><line style="stroke:#181818;stroke-width:0.5;" x1="1524" x2="1670" y1="98.6094" y2="98.6094"/><text fill="#000000" font-family="sans-serif" font-size="14" lengthAdjust="spacing" textLength="126" x="1534" y="90.5332">set_first_sample_ec</text></g><g id="calibration_ec.set_second_sample_ec"><rect fill="#F1F1F1" height="50" rx="12.5" ry="12.5" style="stroke:#181818;stroke-width:0.5;" width="169" x="1479.5" y="372.5"/><line style="stroke:#181818;stroke-width:0.5;" x1="1479.5" x2="1648.5" y1="400.1094" y2="400.1094"/><text fill="#000000" font-family="sans-serif" font-size="14" lengthAdjust="spacing" textLength="149" x="1489.5" y="392.0332">set_second_sample_ec</text></g><ellipse cx="370" cy="397.5" fill="#222222" rx="10" ry="10" style="stroke:none;stroke-width:1.0;"/><g id="change_ph_range.set_ph_range"><rect fill="#F1F1F1" height="50" rx="12.5" ry="12.5" style="stroke:#181818;stroke-width:0.5;" width="108" x="415" y="372.5"/><line style="stroke:#181818;stroke-width:0.5;" x1="415" x2="523" y1="400.1094" y2="400.1094"/><text fill="#000000" font-family="sans-serif" font-size="14" lengthAdjust="spacing" textLength="88" x="425" y="392.0332">set_ph_range</text></g><ellipse cx="1228" cy="397.5" fill="#222222" rx="10" ry="10" style="stroke:none;stroke-width:1.0;"/><g id="change_ec_range.set_ec_range"><rect fill="#F1F1F1" height="50" rx="12.5" ry="12.5" style="stroke:#181818;stroke-width:0.5;" width="107" x="1273.5" y="372.5"/><line style="stroke:#181818;stroke-width:0.5;" x1="1273.5" x2="1380.5" y1="400.1094" y2="400.1094"/><text fill="#000000" font-family="sans-serif" font-size="14" lengthAdjust="spacing" textLength="87" x="1283.5" y="392.0332">set_ec_range</text></g><ellipse cx="704" cy="757" fill="#222222" rx="10" ry="10" style="stroke:none;stroke-width:1.0;"/><g id="measure_ph.present_ph_data"><rect fill="#F1F1F1" height="50" rx="12.5" ry="12.5" style="stroke:#181818;stroke-width:0.5;" width="128" x="749" y="732"/><line style="stroke:#181818;stroke-width:0.5;" x1="749" x2="877" y1="759.6094" y2="759.6094"/><text fill="#000000" font-family="sans-serif" font-size="14" lengthAdjust="spacing" textLength="108" x="759" y="751.5332">present_ph_data</text></g><ellipse cx="975" cy="757" fill="#222222" rx="10" ry="10" style="stroke:none;stroke-width:1.0;"/><g id="measure_ec.present_ec_data"><rect fill="#F1F1F1" height="50" rx="12.5" ry="12.5" style="stroke:#181818;stroke-width:0.5;" width="127" x="1020.5" y="732"/><line style="stroke:#181818;stroke-width:0.5;" x1="1020.5" x2="1147.5" y1="759.6094" y2="759.6094"/><text fill="#000000" font-family="sans-serif" font-size="14" lengthAdjust="spacing" textLength="107" x="1030.5" y="751.5332">present_ec_data</text></g><ellipse cx="720" cy="397.5" fill="#222222" rx="10" ry="10" style="stroke:none;stroke-width:1.0;"/><g id="startup"><rect fill="#F1F1F1" height="50" rx="12.5" ry="12.5" style="stroke:#181818;stroke-width:0.5;" width="64" x="765" y="372.5"/><line style="stroke:#181818;stroke-width:0.5;" x1="765" x2="829" y1="400.1094" y2="400.1094"/><text fill="#000000" font-family="sans-serif" font-size="14" lengthAdjust="spacing" textLength="44" x="775" y="392.0332">startup</text></g><path d="M876.5,199 L1135.5,199 A12.5,12.5 0 0 1 1148,211.5 L1148,226.6094 L864,226.6094 L864,211.5 A12.5,12.5 0 0 1 876.5,199 " fill="#F1F1F1" style="stroke:#F1F1F1;stroke-width:1.0;"/><rect fill="none" height="396.6094" rx="12.5" ry="12.5" style="stroke:#181818;stroke-width:0.5;" width="284" x="864" y="199"/><line style="stroke:#181818;stroke-width:0.5;" x1="864" x2="1148" y1="226.6094" y2="226.6094"/><text fill="#000000" font-family="sans-serif" font-size="14" lengthAdjust="spacing" textLength="70" x="971" y="218.5332">automation</text><ellipse cx="885" cy="263.6094" fill="#222222" rx="10" ry="10" style="stroke:none;stroke-width:1.0;"/><g id="automation.check_ph_automation"><rect fill="#F1F1F1" height="50" rx="12.5" ry="12.5" style="stroke:#181818;stroke-width:0.5;" width="159" x="913.5" y="238.6094"/><line style="stroke:#181818;stroke-width:0.5;" x1="913.5" x2="1072.5" y1="266.2188" y2="266.2188"/><text fill="#000000" font-family="sans-serif" font-size="14" lengthAdjust="spacing" textLength="139" x="923.5" y="258.1426">check_ph_automation</text></g><g id="automation.fill_ph"><rect fill="#F1F1F1" height="50" rx="12.5" ry="12.5" style="stroke:#181818;stroke-width:0.5;" width="57" x="904.5" y="410.6094"/><line style="stroke:#181818;stroke-width:0.5;" x1="904.5" x2="961.5" y1="438.2188" y2="438.2188"/><text fill="#000000" font-family="sans-serif" font-size="14" lengthAdjust="spacing" textLength="37" x="914.5" y="430.1426">fill_ph</text></g><g id="automation.check_ec_automation"><rect fill="#F1F1F1" height="50" rx="12.5" ry="12.5" style="stroke:#181818;stroke-width:0.5;" width="158" x="974" y="342.6094"/><line style="stroke:#181818;stroke-width:0.5;" x1="974" x2="1132" y1="370.2188" y2="370.2188"/><text fill="#000000" font-family="sans-serif" font-size="14" lengthAdjust="spacing" textLength="138" x="984" y="362.1426">check_ec_automation</text></g><g id="automation.fill_ec"><rect fill="#F1F1F1" height="50" rx="12.5" ry="12.5" style="stroke:#181818;stroke-width:0.5;" width="56" x="961" y="478.6094"/><line style="stroke:#181818;stroke-width:0.5;" x1="961" x2="1017" y1="506.2188" y2="506.2188"/><text fill="#000000" font-family="sans-serif" font-size="14" lengthAdjust="spacing" textLength="36" x="971" y="498.1426">fill_ec</text></g><ellipse cx="989" cy="575.6094" fill="none" rx="10" ry="10" style="stroke:#222222;stroke-width:1.0;"/><ellipse cx="989.5" cy="576.1094" fill="#222222" rx="6" ry="6" style="stroke:none;stroke-width:1.0;"/><!--MD5=[434e41649148a6033b5d3a55389d6851]
link *start*automation to check_ph_automation--><g id="link_*start*automation_check_ph_automation"><path d="M895.12,263.6094 C899.52,263.6094 903.92,263.6094 908.32,263.6094 " fill="none" id="*start*automation-to-check_ph_automation" style="stroke:#181818;stroke-width:1.0;"/><polygon fill="#181818" points="913.48,263.6094,904.48,259.6094,908.48,263.6094,904.48,267.6094,913.48,263.6094" style="stroke:#181818;stroke-width:1.0;"/></g><!--MD5=[c5782cb9bba0c90269553657f36f9dcb]
link check_ph_automation to fill_ph--><g id="link_check_ph_automation_fill_ph"><path d="M945,288.7994 C938.98,293.8594 933.66,299.7694 930,306.6094 C913.61,337.2394 918.35,378.1694 924.53,405.4094 " fill="none" id="check_ph_automation-to-fill_ph" style="stroke:#181818;stroke-width:1.0;"/><polygon fill="#181818" points="925.69,410.3394,927.5223,400.6625,924.5448,405.4723,919.735,402.4948,925.69,410.3394" style="stroke:#181818;stroke-width:1.0;"/><text fill="#000000" font-family="sans-serif" font-size="13" lengthAdjust="spacing" textLength="95" x="931" y="321.1045">ec_out_of_range</text></g><!--MD5=[f8b911894df9cf8d1c9431261c543a87]
link check_ph_automation to check_ec_automation--><g id="link_check_ph_automation_check_ec_automation"><path d="M1017.6,288.6694 C1022.47,294.2394 1027.24,300.3794 1031,306.6094 C1036.77,316.1594 1041.4,327.4594 1044.9,337.6694 " fill="none" id="check_ph_automation-to-check_ec_automation" style="stroke:#181818;stroke-width:1.0;"/><polygon fill="#181818" points="1046.52,342.5794,1047.4864,332.778,1044.9474,337.8331,1039.8924,335.2941,1046.52,342.5794" style="stroke:#181818;stroke-width:1.0;"/><text fill="#000000" font-family="sans-serif" font-size="13" lengthAdjust="spacing" textLength="61" x="1040" y="321.1045">correct_ph</text></g><!--MD5=[b9072545e05d38283c26069f582ac083]
link check_ec_automation to fill_ec--><g id="link_check_ec_automation_fill_ec"><path d="M1003.18,392.8394 C997.1,397.8694 991.73,403.7694 988,410.6094 C977.67,429.5894 978.53,454.1994 981.65,473.1894 " fill="none" id="check_ec_automation-to-fill_ec" style="stroke:#181818;stroke-width:1.0;"/><polygon fill="#181818" points="982.58,478.3894,984.9202,468.8226,981.6931,473.4687,977.0471,470.2416,982.58,478.3894" style="stroke:#181818;stroke-width:1.0;"/><text fill="#000000" font-family="sans-serif" font-size="13" lengthAdjust="spacing" textLength="95" x="989" y="441.1045">ph_out_of_range</text></g><!--MD5=[35e0211521061c5f5e2eb690e8e76ab8]
link check_ec_automation to *end*automation--><g id="link_check_ec_automation_*end*automation"><path d="M1075.56,392.8194 C1079.43,398.2994 1082.89,404.3594 1085,410.6094 C1092.11,431.6694 1092.62,439.7294 1085,460.6094 C1067.95,507.3194 1022.39,548.1494 1000.74,565.5994 " fill="none" id="check_ec_automation-to-*end*automation" style="stroke:#181818;stroke-width:1.0;"/><polygon fill="#181818" points="996.75,568.7694,1006.2833,566.2961,1000.6627,565.6564,1001.3024,560.0358,996.75,568.7694" style="stroke:#181818;stroke-width:1.0;"/><text fill="#000000" font-family="sans-serif" font-size="13" lengthAdjust="spacing" textLength="61" x="1077" y="509.1045">correct_ec</text></g><!--MD5=[b0a61368f84f921a1d3a9339edd6fa3a]
link fill_ph to *end*automation--><g id="link_fill_ph_*end*automation"><path d="M934.84,460.6494 C937.03,479.8094 941.78,506.9194 952,528.6094 C958.46,542.3094 969.8,555.5294 978.22,564.2494 " fill="none" id="fill_ph-to-*end*automation" style="stroke:#181818;stroke-width:1.0;"/><polygon fill="#181818" points="982.09,568.1494,978.5917,558.9427,978.5688,564.5996,972.912,564.5767,982.09,568.1494" style="stroke:#181818;stroke-width:1.0;"/></g><!--MD5=[c88f6f9297c7d5aa25b78cba4600af3a]
link fill_ec to *end*automation--><g id="link_fill_ec_*end*automation"><path d="M989,528.6994 C989,539.1794 989,551.1094 989,560.1794 " fill="none" id="fill_ec-to-*end*automation" style="stroke:#181818;stroke-width:1.0;"/><polygon fill="#181818" points="989,565.4194,993,556.4194,989,560.4194,985,556.4194,989,565.4194" style="stroke:#181818;stroke-width:1.0;"/></g><!--MD5=[fcd815e3564d5ceacdfaf857d11377e3]
link *start to startup--><g id="link_*start_startup"><path d="M730.23,397.5 C740.07,397.5 749.92,397.5 759.77,397.5 " fill="none" id="*start-to-startup" style="stroke:#181818;stroke-width:1.0;"/><polygon fill="#181818" points="764.92,397.5,755.92,393.5,759.92,397.5,755.92,401.5,764.92,397.5" style="stroke:#181818;stroke-width:1.0;"/></g><!--MD5=[71b82209d3c49307a26a2b1965cf56cf]
link startup to measure_ph--><g id="link_startup_measure_ph"><path d="M795.94,422.63 C793.19,461.91 783.34,540.81 748,596 C726.51,629.55 698.43,617.79 678,652 C675.035,656.9638 672.512,662.2806 670.3672,667.7886 " fill="none" id="startup-to-measure_ph" style="stroke:#181818;stroke-width:1.0;"/><polygon fill="#181818" points="670.3672,667.7886,677.3604,660.8534,672.1815,663.1293,669.9056,657.9505,670.3672,667.7886" style="stroke:#181818;stroke-width:1.0;"/></g><!--MD5=[cb1c77d0aa2c07a79991f76db5d3e3e6]
link measure_ph to measure_ec--><g id="link_measure_ph_measure_ec"><path d="M665.9282,667.6225 C666.013,667.4738 666.0984,667.3255 666.1844,667.1776 C666.5284,666.5861 666.8821,666.0007 667.2457,665.422 C670.1548,660.792 673.7,656.585 678,653 C719.47,618.42 1122.53,618.42 1164,653 C1168.3,656.585 1171.8452,660.792 1174.7543,665.422 C1175.1179,666.0007 1175.4716,666.5861 1175.8156,667.1776 C1175.9016,667.3255 1175.987,667.4738 1176.0718,667.6225 " fill="none" id="measure_ph-to-measure_ec" style="stroke:#181818;stroke-width:1.0;"/><polygon fill="#181818" points="1176.0718,667.6225,1175.0875,657.8229,1173.5947,663.2792,1168.1384,661.7864,1176.0718,667.6225" style="stroke:#181818;stroke-width:1.0;"/><text fill="#000000" font-family="sans-serif" font-size="13" lengthAdjust="spacing" textLength="70" x="875" y="640.4951">left_pressed</text></g><!--MD5=[fccc07efbd93e6797ceeb0e29bf76eee]
link measure_ec to measure_ph--><g id="link_measure_ec_measure_ph"><path d="M1176.0718,667.6225 C1175.987,667.4738 1175.9016,667.3255 1175.8156,667.1776 C1175.4716,666.5861 1175.1179,666.0007 1174.7543,665.422 C1171.8452,660.792 1168.3,656.585 1164,653 C1122.53,618.42 719.47,618.42 678,653 C673.7,656.585 670.1548,660.792 667.2457,665.422 C666.8821,666.0007 666.5284,666.5861 666.1844,667.1776 C666.0984,667.3255 666.013,667.4738 665.9282,667.6225 " fill="none" id="measure_ec-to-measure_ph" style="stroke:#181818;stroke-width:1.0;"/><polygon fill="#181818" points="665.9282,667.6225,673.8616,661.7864,668.4053,663.2792,666.9125,657.8229,665.9282,667.6225" style="stroke:#181818;stroke-width:1.0;"/><text fill="#000000" font-family="sans-serif" font-size="13" lengthAdjust="spacing" textLength="70" x="952" y="640.4951">left_pressed</text></g><!--MD5=[ce79ea9f65827ffe7d53c7e6414d9d98]
link measure_ph to calibration_ph--><g id="link_measure_ph_calibration_ph"><path d="M650.9743,719.5216 C650.9284,719.3124 650.8822,719.1026 650.836,718.892 C650.7435,718.4709 650.6504,718.0472 650.5567,717.6207 C650.182,715.9151 649.7981,714.1673 649.4057,712.3804 C648.6209,708.8066 647.8022,705.0766 646.955,701.215 C640.1775,670.3225 631.58,631.015 624,596 C585.83,419.64 656.65,335.81 539,199 C497.835,151.13 431.785,125.6725 375.3188,112.1613 C347.0856,105.4056 321.2484,101.6366 302.1158,99.5458 C292.5495,98.5004 284.6593,97.8746 278.9838,97.5048 C278.6291,97.4817 278.283,97.4596 277.9457,97.4384 C277.7771,97.4278 277.6106,97.4175 277.4464,97.4074 " fill="none" id="measure_ph-to-calibration_ph" style="stroke:#181818;stroke-width:1.0;"/><polygon fill="#181818" points="277.4464,97.4074,286.1839,101.9523,282.4369,97.7143,286.6749,93.9674,277.4464,97.4074" style="stroke:#181818;stroke-width:1.0;"/><text fill="#000000" font-family="sans-serif" font-size="13" lengthAdjust="spacing" textLength="67" x="625" y="402.9951">up_pressed</text></g><!--MD5=[265956b0681fb96ea2f696f75e684b63]
link measure_ph to change_ph_range--><g id="link_measure_ph_change_ph_range"><path d="M650.9492,754.1467 C650.644,754.0741 650.3307,753.9993 650.0094,753.9224 C644.8684,752.6919 637.6838,750.9103 628.8763,748.5688 C611.2613,743.8856 587.155,736.9625 559.925,727.7275 C505.465,709.2575 438.51,681.54 386,644 C362.94,627.51 355.23,622.03 344,596 C326.805,556.15 321.9325,507.6825 321.4188,468.7338 C321.3545,463.8652 321.3584,459.1453 321.4149,454.6096 C321.4431,452.3417 321.4844,450.1199 321.537,447.9486 C321.5436,447.6771 321.5503,447.4065 321.5572,447.1367 " fill="none" id="measure_ph-to-change_ph_range" style="stroke:#181818;stroke-width:1.0;"/><polygon fill="#181818" points="321.5572,447.1367,317.328,456.0313,321.4291,452.135,325.3253,456.2362,321.5572,447.1367" style="stroke:#181818;stroke-width:1.0;"/><text fill="#000000" font-family="sans-serif" font-size="13" lengthAdjust="spacing" textLength="83" x="387" y="640.4951">down_pressed</text></g><!--MD5=[32b6d9caa5d8312293e90f535e5154c8]
link measure_ec to calibration_ec--><g id="link_measure_ec_calibration_ec"><path d="M1191.1706,754.6974 C1191.423,754.6563 1191.6808,754.6143 1191.9442,754.5713 C1192.9975,754.3995 1194.1384,754.2125 1195.364,754.0104 C1197.815,753.6063 1200.6045,753.1419 1203.7087,752.6186 C1216.1258,750.5251 1233.5794,747.4874 1254.5569,743.5817 C1296.5119,735.7703 1352.5625,724.4869 1410.6075,710.3413 C1526.6975,682.05 1650.765,642.31 1686,596 C1752.67,508.38 1757.8675,384.8875 1746.1763,282.6788 C1740.3306,231.5744 1730.2628,185.7909 1721.5458,152.473 C1719.3665,144.1435 1717.2717,136.5931 1715.3484,129.9334 C1714.8675,128.2685 1714.3974,126.6592 1713.9394,125.1074 C1713.7104,124.3315 1713.4844,123.5699 1713.2616,122.8229 " fill="none" id="measure_ec-to-calibration_ec" style="stroke:#181818;stroke-width:1.0;"/><polygon fill="#181818" points="1713.2616,122.8229,1712.0009,132.5908,1714.6907,127.6143,1719.6671,130.3041,1713.2616,122.8229" style="stroke:#181818;stroke-width:1.0;"/><text fill="#000000" font-family="sans-serif" font-size="13" lengthAdjust="spacing" textLength="67" x="1752" y="402.9951">up_pressed</text></g><!--MD5=[5057d9d5b02f64b93f2597fea3799958]
link measure_ec to change_ec_range--><g id="link_measure_ec_change_ec_range"><path d="M1183,666.3553 C1183,665.7502 1183,665.1434 1183,664.5347 C1183,662.1002 1183,659.637 1183,657.1478 C1183,652.1694 1183,647.0869 1183,641.9211 C1183,621.2579 1183,599.2622 1183,577.2663 C1183,533.2744 1183,489.2816 1183,455.9461 C1183,453.8626 1183,451.8208 1183,449.8232 C1183,448.8244 1183,447.8366 1183,446.8603 " fill="none" id="measure_ec-to-change_ec_range" style="stroke:#181818;stroke-width:1.0;"/><polygon fill="#181818" points="1183,446.8603,1179,455.8603,1183,451.8603,1187,455.8603,1183,446.8603" style="stroke:#181818;stroke-width:1.0;"/><text fill="#000000" font-family="sans-serif" font-size="13" lengthAdjust="spacing" textLength="83" x="1184" y="640.4951">down_pressed</text></g><!--MD5=[3a20e6364e55cd3b79416754e34a9d6f]
link *start*calibration_ph to set_first_sample_ph--><g id="link_*start*calibration_ph_set_first_sample_ph"><path d="M51.23,96 C61.24,96 71.25,96 81.26,96 " fill="none" id="*start*calibration_ph-to-set_first_sample_ph" style="stroke:#181818;stroke-width:1.0;"/><polygon fill="#181818" points="86.49,96,77.49,92,81.49,96,77.49,100,86.49,96" style="stroke:#181818;stroke-width:1.0;"/></g><!--MD5=[e62093087edaa64d0e9a2aa6fb83c9d1]
link set_first_sample_ph to set_second_sample_ph--><g id="link_set_first_sample_ph_set_second_sample_ph"><path d="M158.88,121 C156.33,175.44 150.13,308.11 147.37,367.23 " fill="none" id="set_first_sample_ph-to-set_second_sample_ph" style="stroke:#181818;stroke-width:1.0;"/><polygon fill="#181818" points="147.13,372.38,151.5368,363.5721,147.3583,367.3852,143.5452,363.2067,147.13,372.38" style="stroke:#181818;stroke-width:1.0;"/><text fill="#000000" font-family="sans-serif" font-size="13" lengthAdjust="spacing" textLength="89" x="158" y="165.4951">center_pressed</text></g><!--MD5=[a9f4ca1706d5a9e7a5ed93ae0759f076]
link set_second_sample_ph to measure_ph--><g id="link_set_second_sample_ph_measure_ph"><path d="M150.72,422.8 C161.59,472.12 193.08,584.32 264,644 C333.265,702.285 431.02,730.305 511.95,743.7438 C552.415,750.4631 588.6737,753.5372 615.0619,754.9264 C628.2559,755.621 638.9823,755.8944 646.533,755.9917 C647.4769,756.0038 648.3711,756.0132 649.2143,756.0203 C649.6359,756.0239 650.0448,756.0269 650.4407,756.0294 " fill="none" id="set_second_sample_ph-to-measure_ph" style="stroke:#181818;stroke-width:1.0;"/><polygon fill="#181818" points="650.4407,756.0294,641.466,751.9729,645.4408,755.998,641.4158,759.9728,650.4407,756.0294" style="stroke:#181818;stroke-width:1.0;"/><text fill="#000000" font-family="sans-serif" font-size="13" lengthAdjust="spacing" textLength="89" x="265" y="640.4951">center_pressed</text></g><!--MD5=[47ca746b5fe81793936aa123c9d6b51a]
link *start*calibration_ec to set_first_sample_ec--><g id="link_*start*calibration_ec_set_first_sample_ec"><path d="M1489.14,96 C1498.95,96 1508.75,96 1518.56,96 " fill="none" id="*start*calibration_ec-to-set_first_sample_ec" style="stroke:#181818;stroke-width:1.0;"/><polygon fill="#181818" points="1523.69,96,1514.69,92,1518.69,96,1514.69,100,1523.69,96" style="stroke:#181818;stroke-width:1.0;"/></g><!--MD5=[6b31b1ca18421007e0b29889205b4079]
link set_first_sample_ec to set_second_sample_ec--><g id="link_set_first_sample_ec_set_second_sample_ec"><path d="M1594.36,121 C1588.36,175.44 1573.74,308.11 1567.22,367.23 " fill="none" id="set_first_sample_ec-to-set_second_sample_ec" style="stroke:#181818;stroke-width:1.0;"/><polygon fill="#181818" points="1566.66,372.38,1571.616,363.8689,1567.2043,367.4097,1563.6635,362.998,1566.66,372.38" style="stroke:#181818;stroke-width:1.0;"/><text fill="#000000" font-family="sans-serif" font-size="13" lengthAdjust="spacing" textLength="89" x="1591" y="165.4951">center_pressed</text></g><!--MD5=[789945142082efc9c993ec699c615c09]
link set_second_sample_ec to measure_ec--><g id="link_set_second_sample_ec_measure_ec"><path d="M1550.49,422.7 C1523.22,469.93 1457.53,575.69 1380,644 C1342.805,676.77 1294.5,704.415 1255.0325,724.0413 C1235.2988,733.8544 1217.7744,741.6628 1204.9528,747.1048 C1201.7474,748.4654 1198.836,749.678 1196.2574,750.737 C1194.9681,751.2665 1193.762,751.7577 1192.644,752.2097 C1192.0851,752.4357 1191.5481,752.652 1191.0338,752.8584 " fill="none" id="set_second_sample_ec-to-measure_ec" style="stroke:#181818;stroke-width:1.0;"/><polygon fill="#181818" points="1191.0338,752.8584,1200.876,753.219,1195.6741,750.9964,1197.8968,745.7944,1191.0338,752.8584" style="stroke:#181818;stroke-width:1.0;"/><text fill="#000000" font-family="sans-serif" font-size="13" lengthAdjust="spacing" textLength="89" x="1399" y="640.4951">center_pressed</text></g><!--MD5=[83763d25ac56a6df303babba80916f21]
link *start*change_ph_range to set_ph_range--><g id="link_*start*change_ph_range_set_ph_range"><path d="M380.05,397.5 C389.92,397.5 399.78,397.5 409.64,397.5 " fill="none" id="*start*change_ph_range-to-set_ph_range" style="stroke:#181818;stroke-width:1.0;"/><polygon fill="#181818" points="414.8,397.5,405.8,393.5,409.8,397.5,405.8,401.5,414.8,397.5" style="stroke:#181818;stroke-width:1.0;"/></g><!--MD5=[15028af4c19c87c0723e4b3b91d2b2f4]
link set_ph_range to measure_ph--><g id="link_set_ph_range_measure_ph"><path d="M464.45,422.52 C456.98,468.98 446.83,572.81 489,644 C511.695,682.315 553.2325,710.045 589.5663,728.3275 C607.7331,737.4688 624.5991,744.2481 637.1583,748.8078 C640.2981,749.9477 643.1687,750.9489 645.7232,751.8136 C647.0005,752.2459 648.1987,752.6442 649.312,753.0085 C649.8687,753.1907 650.4041,753.3644 650.9176,753.5297 " fill="none" id="set_ph_range-to-measure_ph" style="stroke:#181818;stroke-width:1.0;"/><polygon fill="#181818" points="650.9176,753.5297,643.5762,746.9643,646.1581,751.9976,641.1248,754.5795,650.9176,753.5297" style="stroke:#181818;stroke-width:1.0;"/><text fill="#000000" font-family="sans-serif" font-size="13" lengthAdjust="spacing" textLength="89" x="490" y="640.4951">center_pressed</text></g><!--MD5=[8fd029c98f29b3c7750cec4189cd854e]
link *start*change_ec_range to set_ec_range--><g id="link_*start*change_ec_range_set_ec_range"><path d="M1238.05,397.5 C1248.11,397.5 1258.17,397.5 1268.23,397.5 " fill="none" id="*start*change_ec_range-to-set_ec_range" style="stroke:#181818;stroke-width:1.0;"/><polygon fill="#181818" points="1273.49,397.5,1264.49,393.5,1268.49,397.5,1264.49,401.5,1273.49,397.5" style="stroke:#181818;stroke-width:1.0;"/></g><!--MD5=[d2e902181177b1682b90e7b2e0c8f399]
link set_ec_range to measure_ec--><g id="link_set_ec_range_measure_ec"><path d="M1325.83,422.74 C1322.82,468.26 1312.27,568.7 1276,644 C1262.18,672.69 1239.435,700.27 1219.8987,720.8825 C1210.1306,731.1887 1201.1647,739.7531 1194.5177,745.8434 C1193.6868,746.6047 1192.8921,747.3274 1192.1367,748.0099 C1191.759,748.3512 1191.391,748.6824 1191.0333,749.0035 " fill="none" id="set_ec_range-to-measure_ec" style="stroke:#181818;stroke-width:1.0;"/><polygon fill="#181818" points="1191.0333,749.0035,1200.4032,745.9695,1194.7546,745.664,1195.06,740.0154,1191.0333,749.0035" style="stroke:#181818;stroke-width:1.0;"/><text fill="#000000" font-family="sans-serif" font-size="13" lengthAdjust="spacing" textLength="89" x="1282" y="640.4951">center_pressed</text></g><!--MD5=[68d068ee2336d500924aab7a5533e833]
link *start*measure_ph to present_ph_data--><g id="link_*start*measure_ph_present_ph_data"><path d="M714.22,757 C724.08,757 733.93,757 743.79,757 " fill="none" id="*start*measure_ph-to-present_ph_data" style="stroke:#181818;stroke-width:1.0;"/><polygon fill="#181818" points="748.95,757,739.95,753,743.95,757,739.95,761,748.95,757" style="stroke:#181818;stroke-width:1.0;"/></g><!--MD5=[dfefd47692b5e2aab11d225d83503020]
link present_ph_data to automation--><g id="link_present_ph_data_automation"><path d="M812.95,731.54 C813.71,704.66 817.38,660.68 832,626 C837.1,613.91 847.48,597.15 860.76,578.14 " fill="none" id="present_ph_data-to-automation" style="stroke:#181818;stroke-width:1.0;"/><polygon fill="#181818" points="863.82,573.79,855.3689,578.8476,860.9422,577.8788,861.911,583.4521,863.82,573.79" style="stroke:#181818;stroke-width:1.0;"/></g><!--MD5=[e6f1e0fe667c6aacf8885494ec7cac56]
link automation to present_ph_data--><g id="link_automation_present_ph_data"><path d="M888.97,596.08 C883.48,606.15 878.13,616.16 873,626 C855.25,660.03 837.09,700.3 825.47,726.9 " fill="none" id="automation-to-present_ph_data" style="stroke:#181818;stroke-width:1.0;"/><polygon fill="#181818" points="823.37,731.7,830.642,725.0579,825.3741,727.1192,823.3127,721.8513,823.37,731.7" style="stroke:#181818;stroke-width:1.0;"/></g><!--MD5=[15a3c726a2faafd92f9f30a0da56c17d]
link *start*measure_ec to present_ec_data--><g id="link_*start*measure_ec_present_ec_data"><path d="M985.22,757 C995.19,757 1005.15,757 1015.12,757 " fill="none" id="*start*measure_ec-to-present_ec_data" style="stroke:#181818;stroke-width:1.0;"/><polygon fill="#181818" points="1020.33,757,1011.33,753,1015.33,757,1011.33,761,1020.33,757" style="stroke:#181818;stroke-width:1.0;"/></g><!--MD5=[5f7c4a2cc5020237fae9e60c6ff7b51d]
link present_ec_data to automation--><g id="link_present_ec_data_automation"><path d="M1078.72,731.79 C1072.54,703.47 1061.69,653.72 1050.22,601.17 " fill="none" id="present_ec_data-to-automation" style="stroke:#181818;stroke-width:1.0;"/><polygon fill="#181818" points="1049.11,596.07,1047.1307,605.7179,1050.181,600.9539,1054.945,604.0043,1049.11,596.07" style="stroke:#181818;stroke-width:1.0;"/></g><!--MD5=[e098c8607c3b7c982e7698fea6da25d1]
link automation to present_ec_data--><g id="link_automation_present_ec_data"><path d="M1058.62,596.11 C1060.88,606.19 1063.02,616.2 1065,626 C1071.95,660.37 1077.4,700.35 1080.65,726.8 " fill="none" id="automation-to-present_ec_data" style="stroke:#181818;stroke-width:1.0;"/><polygon fill="#181818" points="1081.27,731.9,1084.1628,722.4856,1080.6709,726.936,1076.2204,723.4441,1081.27,731.9" style="stroke:#181818;stroke-width:1.0;"/></g><!--MD5=[a9e40b238da454815ecb7b42a8618d91]
@startuml
[*]->startup
startup - -> measure_ph
measure_ph - -> measure_ec : left_pressed 
measure_ph - -> calibration_ph : up_pressed
measure_ph - -> change_ph_range :down_pressed
measure_ec - -> calibration_ec : up_pressed
measure_ec - -> change_ec_range :down_pressed
measure_ec - -> measure_ph : left_pressed

state calibration_ph{
    [*] -> set_first_sample_ph
    set_first_sample_ph - -> set_second_sample_ph : center_pressed
    set_second_sample_ph - -> measure_ph : center_pressed
}

state calibration_ec{
    [*] -> set_first_sample_ec
    set_first_sample_ec - -> set_second_sample_ec : center_pressed
    set_second_sample_ec - -> measure_ec : center_pressed
}

state change_ph_range{
    [*] -> set_ph_range
    set_ph_range - -> measure_ph : center_pressed  
}

state change_ec_range{
    [*] -> set_ec_range
    set_ec_range - -> measure_ec : center_pressed  
}

state measure_ph{
    [*] -> present_ph_data
    present_ph_data - -> automation
    automation - -> present_ph_data
}

state measure_ec{
    [*] -> present_ec_data
    present_ec_data - -> automation
    automation - -> present_ec_data
}

state automation{
    [*] -> check_ph_automation
    check_ph_automation - -> fill_ph : ec_out_of_range
    check_ph_automation - -> check_ec_automation : correct_ph
    check_ec_automation - -> fill_ec : ph_out_of_range
    check_ec_automation - -> [*] : correct_ec
    fill_ph - -> [*]
    fill_ec - -> [*]
}

@enduml

PlantUML version 1.2022.7(Mon Aug 22 19:01:30 CEST 2022)
(GPL source distribution)
Java Runtime: Java(TM) SE Runtime Environment
JVM: Java HotSpot(TM) 64-Bit Server VM
Default Encoding: Cp1250
Language: pl
Country: PL
--></g></svg>